<svg id="圖層_1" data-name="圖層 1" xmlns="http://www.w3.org/2000/svg" viewBox="0 0 103.24 31.52"><defs><style>.cls-1,.cls-2{fill:#cf3339;}.cls-2{font-size:13.86px;font-family:LiHeiPro, LiHei Pro;letter-spacing:0.1em;}</style></defs><title>logo</title><polygon class="cls-1" points="13.08 18.17 13.08 16.99 8.43 16.99 9.36 15.94 7.71 15.94 6.78 16.99 1.74 16.99 1.74 18.17 13.08 18.17"/><path class="cls-1" d="M10.57,22.78H2.88v4.68a2,2,0,0,0,.11.73,1,1,0,0,0,.31.41.86.86,0,0,0,.43.18,4,4,0,0,0,.5,0h6.35a4,4,0,0,0,.5,0,.83.83,0,0,0,.43-.18,1,1,0,0,0,.31-.41,1.82,1.82,0,0,0,.12-.73V22.78H10.57ZM4.66,23.85h5.91v1.29H4.24V23.85Zm5.9,3.5a.43.43,0,0,1-.07.2.49.49,0,0,1-.19.15,1.15,1.15,0,0,1-.36.05H4.88a1.06,1.06,0,0,1-.36-.05.42.42,0,0,1-.19-.15.44.44,0,0,1-.08-.2,1.93,1.93,0,0,1,0-.24v-.9h6.33v.9a1.93,1.93,0,0,1,0,.24"/><polygon class="cls-1" points="10.07 20.57 11.48 18.98 9.83 18.98 7.41 21.73 8.03 21.73 9.05 21.73 13.33 21.73 13.98 20.57 10.07 20.57"/><polygon class="cls-1" points="3.34 18.98 4.75 20.57 0.84 20.57 1.48 21.73 5.76 21.73 6.79 21.73 7.41 21.73 4.98 18.98 3.34 18.98"/><polygon class="cls-1" points="20.97 26.03 22.55 24.6 22.55 26.76 23.8 26.76 23.8 24.6 25.38 26.03 27.11 26.03 23.18 22.31 19.24 26.03 20.97 26.03"/><path class="cls-1" d="M22.55,18.14V19h-3v3.33h7.2V19h-3v-.84h3.73V17H23.8v-1H22.55v1H18.2l1-1H17.38l-1.95,2.2ZM20.8,21.22V20.08h1.75v1.14H20.8Zm4.75,0H23.8V20.08h1.75Z"/><path class="cls-1" d="M23.24,27.24a14.73,14.73,0,0,1-3.57-.32A3,3,0,0,1,18,25.48l.33-1a6.71,6.71,0,0,0,.23-1v-.82H16.87a2.46,2.46,0,0,1,.17-.22A19.94,19.94,0,0,0,18.57,20V19H15.29v1.17h1.87a17.16,17.16,0,0,1-1.86,2.62v1h2a8.63,8.63,0,0,1-2.36,4l.9,1a10.5,10.5,0,0,0,1.57-2.15,3.58,3.58,0,0,0,1.82,1.45,20,20,0,0,0,5,.38h3.37l.21-1.19H23.24"/><path class="cls-1" d="M29.46,19.24h0s0,0,0,0"/><polygon class="cls-1" points="33.01 15.94 31.74 15.94 31.74 18.98 30.73 18.98 31.17 16.53 29.92 16.53 29.3 19.98 29.25 20.13 29.28 20.13 29.05 21.41 30.31 21.36 30.53 20.13 31.74 20.13 31.74 22.69 31.74 23.14 29.19 24.89 29.19 26.36 31.74 24.61 31.74 28.84 33.01 28.84 33.01 23.74 33.95 23.1 33.95 21.62 33.01 22.27 33.01 22.17 33.01 20.13 33.95 20.13 33.95 18.98 33.01 18.98 33.01 15.94"/><path class="cls-1" d="M36.66,17.79a5.3,5.3,0,0,0,.21-.83l.17-.91-1.32-.13a9.93,9.93,0,0,1-1.65,4.59l1,.79a7.07,7.07,0,0,0,1.22-2.15l.07-.21h.61a8.18,8.18,0,0,1-2.87,5.4l.89.94a10.36,10.36,0,0,0,3.18-6.34h.58l-.06.76a9.86,9.86,0,0,1-3.91,7.62l.81,1a3.91,3.91,0,0,0,.91-.81,12.49,12.49,0,0,0,1.46-1.77,10.27,10.27,0,0,0,1.41-2.94,18.76,18.76,0,0,0,.59-3.84h.52s0,.25,0,.63v.69c0,1.92-.06,3.57-.17,4.95A4.56,4.56,0,0,1,39.94,27a1,1,0,0,1-.78.23,12.28,12.28,0,0,1-1.5-.12L38,28.63c.21,0,.49,0,.83,0a2.86,2.86,0,0,0,2.11-.54,6,6,0,0,0,.59-3c.09-1.61.14-3.74.14-6.37v-1Z"/><path class="cls-1" d="M45.41,18.76l.94-1.15c-.22-.19-.57-.45-1.07-.8l-1-.66-.87,1,.34.23a18,18,0,0,1,1.7,1.4"/><path class="cls-1" d="M45.06,23.63A17.06,17.06,0,0,1,43,28.08l1.27.71a15.71,15.71,0,0,0,2-4.77Z"/><path class="cls-1" d="M44,21.45l1,.86L46,21.16a8.24,8.24,0,0,0-1.08-.79l-1-.6-.89,1,.34.22a7.44,7.44,0,0,1,.68.49"/><polygon class="cls-1" points="52.82 18.98 51.18 18.98 52.69 20.7 49.67 20.7 51.18 18.98 49.53 18.98 47.01 21.85 48.12 21.85 48.66 21.85 53.7 21.85 54.24 21.85 55.34 21.85 52.82 18.98"/><polygon class="cls-1" points="52.08 16.99 51.14 15.94 49.5 15.94 50.43 16.99 47.17 16.99 47.17 18.17 47.46 18.17 48.36 18.17 51.33 18.17 52.87 18.17 55.19 18.17 55.19 16.99 52.08 16.99"/><path class="cls-1" d="M50.6,22.91v4.55a1.82,1.82,0,0,0,.12.73.93.93,0,0,0,.3.41.86.86,0,0,0,.44.18,3.9,3.9,0,0,0,.5,0h0V22.91Z"/><path class="cls-1" d="M48.2,22.91V26a1.7,1.7,0,0,1-1.62,1.59v1.2a3,3,0,0,0,3-3V22.91Z"/><path class="cls-1" d="M55.77,27.75H55a1.06,1.06,0,0,1-.36-.05.38.38,0,0,1-.19-.15.36.36,0,0,1-.08-.2,1.85,1.85,0,0,1,0-.24v-4.2H53v4.55a1.82,1.82,0,0,0,.12.73,1,1,0,0,0,.31.41.83.83,0,0,0,.43.18,4,4,0,0,0,.5,0h.35a1.06,1.06,0,0,0,1.06-1.07"/><path class="cls-1" d="M43.22,5.53a3.46,3.46,0,0,1,.85-1.28,3.66,3.66,0,0,1,1.31-.78,6,6,0,0,1,3.48,0,3.66,3.66,0,0,1,1.31.78A3.46,3.46,0,0,1,51,5.53a5.05,5.05,0,0,1,.29,1.77A5.05,5.05,0,0,1,51,9.07a3.45,3.45,0,0,1-2.16,2.06,6,6,0,0,1-3.48,0,3.45,3.45,0,0,1-2.16-2.06,5.05,5.05,0,0,1-.29-1.77,5.05,5.05,0,0,1,.29-1.77m3.06-.29a1.27,1.27,0,0,0-.53.44,2.32,2.32,0,0,0-.27.7,5.21,5.21,0,0,0-.07.92,5.14,5.14,0,0,0,.07.92,2.13,2.13,0,0,0,.27.7,1.2,1.2,0,0,0,.53.44,2.43,2.43,0,0,0,1.68,0,1.15,1.15,0,0,0,.53-.44,2.13,2.13,0,0,0,.27-.7,5.14,5.14,0,0,0,.07-.92,5.21,5.21,0,0,0-.07-.92,2.32,2.32,0,0,0-.27-.7A1.21,1.21,0,0,0,48,5.24a2.59,2.59,0,0,0-1.68,0"/><path class="cls-1" d="M8.51,1V4.5h-1a1.63,1.63,0,0,1-.76-.15A1.12,1.12,0,0,1,6.33,4a1.46,1.46,0,0,1-.21-.48,2.79,2.79,0,0,1,0-.47V1h-3V4a3.07,3.07,0,0,0,.29,1.39,2.84,2.84,0,0,0,.78,1,3.42,3.42,0,0,0,1.08.54A4.43,4.43,0,0,0,6.38,7H8.51V7.5a1.26,1.26,0,0,1-.12.59,1,1,0,0,1-.29.35,1.17,1.17,0,0,1-.38.17,1.89,1.89,0,0,1-.39.05H2.93L.84,11h7a4.52,4.52,0,0,0,1.37-.22,3.16,3.16,0,0,0,1.18-.7,3.36,3.36,0,0,0,.82-1.22,4.82,4.82,0,0,0,.31-1.81V1Z"/><path class="cls-1" d="M32.58,5.74a3,3,0,0,0-1-.65,3.74,3.74,0,0,0-1.35-.23H26.86a.76.76,0,0,1,0-1.52h5L34,1H26.5a3.74,3.74,0,0,0-1.35.23,3,3,0,0,0-1,.64,2.69,2.69,0,0,0-.62,1A3.51,3.51,0,0,0,23.33,4a3.45,3.45,0,0,0,.21,1.23,2.65,2.65,0,0,0,.62,1,2.82,2.82,0,0,0,1,.64,3.54,3.54,0,0,0,1.35.24h3.36a.77.77,0,0,1,0,1.54h-5L22.75,11h7.48a3.54,3.54,0,0,0,1.35-.24,2.86,2.86,0,0,0,1-.64,2.67,2.67,0,0,0,.61-1,3.68,3.68,0,0,0,0-2.45,2.84,2.84,0,0,0-.61-1"/><path class="cls-1" d="M17.12,8.49a1.92,1.92,0,0,1-.7-.47,2.15,2.15,0,0,1-.48-.82A3.81,3.81,0,0,1,15.77,6a3.9,3.9,0,0,1,.17-1.2A2.07,2.07,0,0,1,16.42,4a1.7,1.7,0,0,1,.7-.47A2.31,2.31,0,0,1,18,3.36h2.82L22.89,1H17.54A4.83,4.83,0,0,0,14,2.24,5.13,5.13,0,0,0,12.71,6,5.15,5.15,0,0,0,14,9.76,4.87,4.87,0,0,0,17.54,11h3.24l2.11-2.39H18a2.54,2.54,0,0,1-.83-.14"/><rect class="cls-1" x="39.38" y="0.97" width="2.37" height="10.06"/><path class="cls-1" d="M57.91,1H55.42a3.46,3.46,0,1,0,0,6.91h2.49v.2a2,2,0,0,1-.08.61.67.67,0,0,1-.19.32.61.61,0,0,1-.29.14,1.87,1.87,0,0,1-.34,0H53.22L51.59,11h5a10.05,10.05,0,0,0,2-.19,2.41,2.41,0,0,0,.88-.54,2.85,2.85,0,0,0,.59-.94A3.89,3.89,0,0,0,60.27,8V1Zm0,4.71H55.58a1.26,1.26,0,1,1,0-2.51h2.33Z"/><path class="cls-1" d="M80.58,5V3.16H78.72V1H76.35V3.16h-1L73.69,5h2.66V8.66a3.4,3.4,0,0,0,.2,1.28,1.66,1.66,0,0,0,.54.71,1.56,1.56,0,0,0,.75.31,4.79,4.79,0,0,0,.87.07h1.87V9.17h-.75a1.75,1.75,0,0,1-.63-.09.66.66,0,0,1-.33-.25.82.82,0,0,1-.13-.35c0-.13,0-.27,0-.41V5Z"/><path class="cls-1" d="M100.78,6.89a2.63,2.63,0,0,0-.78-.51,2.91,2.91,0,0,0-1.06-.18H96.31a.6.6,0,1,1,0-1.19h3.92l1.64-1.85H96a2.85,2.85,0,0,0-1,.18,2.23,2.23,0,0,0-.78.5,2.1,2.1,0,0,0-.48.77,2.67,2.67,0,0,0-.17.95,2.78,2.78,0,0,0,.17,1,2.1,2.1,0,0,0,.48.75,2.25,2.25,0,0,0,.78.51A2.85,2.85,0,0,0,96,8h2.63a.6.6,0,1,1,0,1.2H94.73L93.09,11h5.85a2.71,2.71,0,0,0,1.06-.19,2.43,2.43,0,0,0,.78-.5,2.14,2.14,0,0,0,.48-.76,2.76,2.76,0,0,0,.16-1,2.69,2.69,0,0,0-.16-1,2.27,2.27,0,0,0-.48-.77"/><path class="cls-1" d="M72.65,6.89a2.46,2.46,0,0,0-.77-.51,2.91,2.91,0,0,0-1.06-.18H68.18a.6.6,0,0,1,0-1.19h3.93l1.64-1.85H67.9a2.82,2.82,0,0,0-1.05.18,2.23,2.23,0,0,0-.78.5,2,2,0,0,0-.49.77,2.91,2.91,0,0,0-.16.95,3,3,0,0,0,.16,1,2,2,0,0,0,.49.75,2.25,2.25,0,0,0,.78.51A2.82,2.82,0,0,0,67.9,8h2.63a.6.6,0,1,1,0,1.2H66.61L65,11h5.85a2.71,2.71,0,0,0,1.06-.19,2.28,2.28,0,0,0,.77-.5,2,2,0,0,0,.49-.76,3,3,0,0,0,.16-1,2.93,2.93,0,0,0-.16-1,2.15,2.15,0,0,0-.49-.77"/><path class="cls-1" d="M88.68,9a1.41,1.41,0,0,1-.55-.37A1.74,1.74,0,0,1,87.76,8a2.84,2.84,0,0,1-.13-.94,2.86,2.86,0,0,1,.13-.93,1.79,1.79,0,0,1,.37-.65,1.53,1.53,0,0,1,.55-.37A2,2,0,0,1,89.33,5h2.21L93.2,3.16H89a3.78,3.78,0,0,0-2.78,1,4,4,0,0,0-1,2.94,4,4,0,0,0,1,2.94A3.78,3.78,0,0,0,89,11h2.53L93.2,9.16H89.33A1.78,1.78,0,0,1,88.68,9"/><rect class="cls-1" x="81.8" y="3.16" width="2.37" height="7.87"/><polygon class="cls-1" points="85.58 0.97 83.17 0.97 82 2.29 84.42 2.29 85.58 0.97"/><rect class="cls-1" x="61.72" y="3.16" width="2.37" height="7.87"/><polygon class="cls-1" points="65.49 0.97 63.08 0.97 61.91 2.29 64.33 2.29 65.49 0.97"/><text class="cls-2" transform="translate(58.46 27.48)">簽收單</text></svg>