<svg id="圖層_1" data-name="圖層 1" xmlns="http://www.w3.org/2000/svg" viewBox="0 0 254.6 22.61"><defs><style>.cls-1{fill:#cf3339;}</style></defs><title>logo</title><polygon class="cls-1" points="196.55 5.91 196.55 4.33 190.33 4.33 191.57 2.93 189.38 2.93 188.13 4.33 181.39 4.33 181.39 5.91 196.55 5.91"/><path class="cls-1" d="M193.2,12.07H182.92v6.25a2.62,2.62,0,0,0,.15,1,1.39,1.39,0,0,0,.41.55,1.49,1.49,0,0,0,.58.24,4.8,4.8,0,0,0,.67.05h8.48a4.8,4.8,0,0,0,.67-.05,1.43,1.43,0,0,0,.58-.24,1.31,1.31,0,0,0,.41-.55,2.62,2.62,0,0,0,.15-1V12.07H193.2Zm-7.9,1.43h7.9v1.73h-8.46V13.5Zm7.88,4.67a.62.62,0,0,1-.09.28.59.59,0,0,1-.26.19,1.52,1.52,0,0,1-.48.07h-6.76a1.52,1.52,0,0,1-.48-.07.55.55,0,0,1-.25-.19.53.53,0,0,1-.1-.28,3,3,0,0,1,0-.31V16.65h8.46v1.21a1.56,1.56,0,0,1,0,.31"/><polygon class="cls-1" points="192.53 9.12 194.41 7 192.21 7 188.97 10.66 189.8 10.66 191.17 10.66 196.89 10.66 197.75 9.12 192.53 9.12"/><polygon class="cls-1" points="183.53 7 185.41 9.12 180.19 9.12 181.05 10.66 186.78 10.66 188.14 10.66 188.97 10.66 185.73 7 183.53 7"/><polygon class="cls-1" points="207.1 16.41 209.21 14.5 209.21 17.39 210.88 17.39 210.88 14.5 212.98 16.41 215.29 16.41 210.04 11.44 204.79 16.41 207.1 16.41"/><path class="cls-1" d="M209.2,5.87V7h-4v4.44h9.62V7h-4V5.87h5V4.33h-5V2.93H209.2v1.4h-5.81l1.38-1.4H202.3l-2.61,2.94ZM206.86,10V8.46h2.34V10h-2.34Zm6.36,0h-2.35V8.46h2.35Z"/><path class="cls-1" d="M210.12,18a20.3,20.3,0,0,1-4.77-.42,4.19,4.19,0,0,1-2.26-1.94l.45-1.38a9.33,9.33,0,0,0,.31-1.31V11.89h-2.24a2.28,2.28,0,0,1,.23-.3,26.92,26.92,0,0,0,2-3.26V7h-4.37V8.55H202a23.69,23.69,0,0,1-2.5,3.51v1.33h2.63A11.67,11.67,0,0,1,199,18.75l1.2,1.31a14.31,14.31,0,0,0,2.1-2.87,4.87,4.87,0,0,0,2.43,1.93q1.46.51,6.72.51h4.5l.28-1.59h-6.1"/><path class="cls-1" d="M218.44,7.33h-.06a0,0,0,0,0,.06,0"/><polygon class="cls-1" points="223.18 2.93 221.49 2.93 221.49 7 220.14 7 220.72 3.72 219.05 3.72 218.23 8.33 218.16 8.53 218.2 8.53 217.89 10.24 219.57 10.18 219.87 8.53 221.49 8.53 221.49 11.94 221.49 12.55 218.07 14.89 218.07 16.86 221.49 14.51 221.49 20.17 223.18 20.17 223.18 13.36 224.44 12.49 224.44 10.52 223.18 11.39 223.18 11.25 223.18 8.53 224.44 8.53 224.44 7 223.18 7 223.18 2.93"/><path class="cls-1" d="M228.06,5.4a7.7,7.7,0,0,0,.28-1.1l.23-1.22-1.76-.17A13.19,13.19,0,0,1,224.59,9l1.28,1.06a9.66,9.66,0,0,0,1.63-2.87l.09-.28h.81a10.92,10.92,0,0,1-3.83,7.22l1.19,1.25A13.91,13.91,0,0,0,230,6.94h.77c0,.34-.05.67-.07,1a13.2,13.2,0,0,1-5.23,10.18l1.08,1.31a5.39,5.39,0,0,0,1.22-1.08A16.08,16.08,0,0,0,229.73,16a14,14,0,0,0,1.89-3.92,25.1,25.1,0,0,0,.78-5.13h.69s0,.33,0,.84V8.7q0,3.84-.23,6.62a6.32,6.32,0,0,1-.44,2.44,1.35,1.35,0,0,1-1,.31,14.45,14.45,0,0,1-2-.17l.44,2a10.78,10.78,0,0,0,1.1,0c1.47,0,2.4-.24,2.82-.72s.68-1.8.79-4,.18-5,.18-8.52V5.4Z"/><path class="cls-1" d="M239.75,6.7,241,5.16a16.73,16.73,0,0,0-1.42-1.07l-1.39-.88L237,4.52l.45.3a24.88,24.88,0,0,1,2.27,1.88"/><path class="cls-1" d="M239.28,13.2a22.45,22.45,0,0,1-2.75,5.94l1.7,1a21.1,21.1,0,0,0,2.64-6.38Z"/><path class="cls-1" d="M237.87,10.29l1.39,1.15,1.22-1.54A11.3,11.3,0,0,0,239,8.85l-1.33-.8-1.18,1.29.45.3a9.5,9.5,0,0,1,.9.65"/><polygon class="cls-1" points="249.65 7 247.46 7 249.47 9.28 245.44 9.28 247.45 7 245.26 7 241.89 10.82 243.38 10.82 244.09 10.82 250.83 10.82 251.55 10.82 253.02 10.82 249.65 7"/><polygon class="cls-1" points="248.66 4.33 247.41 2.93 245.21 2.93 246.46 4.33 242.1 4.33 242.1 5.91 242.49 5.91 243.69 5.91 247.66 5.91 249.71 5.91 252.81 5.91 252.81 4.33 248.66 4.33"/><path class="cls-1" d="M246.69,12.24v6.08a2.62,2.62,0,0,0,.15,1,1.31,1.31,0,0,0,.41.55,1.43,1.43,0,0,0,.58.24,4.8,4.8,0,0,0,.67.05h0v-7.9Z"/><path class="cls-1" d="M243.48,12.24v3.33s0,.79,0,.83a2.24,2.24,0,0,1-2.16,2.12v1.61a4.08,4.08,0,0,0,4-4V12.24Z"/><path class="cls-1" d="M253.6,18.71h-1a1.52,1.52,0,0,1-.48-.07.59.59,0,0,1-.26-.19.77.77,0,0,1-.1-.28c0-.1,0-.2,0-.31V12.24H249.9v6.08a2.62,2.62,0,0,0,.15,1,1.31,1.31,0,0,0,.41.55,1.43,1.43,0,0,0,.58.24,4.68,4.68,0,0,0,.67.05h.46a1.43,1.43,0,0,0,1.43-1.43"/><path class="cls-1" d="M74.21,10.78a5.87,5.87,0,0,1,3.73-3.55,10.19,10.19,0,0,1,6,0A6.22,6.22,0,0,1,86.2,8.57a6.08,6.08,0,0,1,1.45,2.21,8.44,8.44,0,0,1,.51,3.05,8.37,8.37,0,0,1-.51,3,6,6,0,0,1-1.45,2.21,6.1,6.1,0,0,1-2.27,1.35,10.19,10.19,0,0,1-6,0,5.92,5.92,0,0,1-3.73-3.56,8.37,8.37,0,0,1-.51-3,8.44,8.44,0,0,1,.51-3.05m5.27-.5a2.18,2.18,0,0,0-.91.76,3.47,3.47,0,0,0-.46,1.21A8.49,8.49,0,0,0,78,13.83a8.52,8.52,0,0,0,.13,1.59,3.55,3.55,0,0,0,.46,1.21,2.26,2.26,0,0,0,.91.76,3.59,3.59,0,0,0,1.45.25,3.64,3.64,0,0,0,1.46-.25,2.16,2.16,0,0,0,.9-.76,3.36,3.36,0,0,0,.46-1.21,9,9,0,0,0,0-3.17A3.29,3.29,0,0,0,83.29,11a2.09,2.09,0,0,0-.9-.76A3.64,3.64,0,0,0,80.93,10a3.59,3.59,0,0,0-1.45.25"/><path class="cls-1" d="M14.35,2.89V9H12.68a2.93,2.93,0,0,1-1.32-.25,2,2,0,0,1-.76-.64,2.19,2.19,0,0,1-.36-.83,4,4,0,0,1-.09-.81V2.89H4.93V8.05a5.14,5.14,0,0,0,.52,2.41A4.91,4.91,0,0,0,6.79,12.1,5.61,5.61,0,0,0,8.65,13a7.24,7.24,0,0,0,2,.3h3.67v.84a2.11,2.11,0,0,1-.21,1,1.61,1.61,0,0,1-.5.61,1.67,1.67,0,0,1-.65.3,3.39,3.39,0,0,1-.68.08H4.74L1.12,20.25h12.1a7.52,7.52,0,0,0,2.36-.37,5.52,5.52,0,0,0,2-1.2A6.08,6.08,0,0,0,19,16.57a8.2,8.2,0,0,0,.53-3.12V2.89Z"/><path class="cls-1" d="M55.86,11.14A5.12,5.12,0,0,0,54.14,10a6.25,6.25,0,0,0-2.33-.4H46A1.32,1.32,0,0,1,46,7h8.65l3.62-4.08H45.38a6.25,6.25,0,0,0-2.33.4,5,5,0,0,0-1.71,1.11A4.6,4.6,0,0,0,40.27,6.1a6.11,6.11,0,0,0-.36,2.11,6,6,0,0,0,.36,2.12A4.56,4.56,0,0,0,41.34,12a5,5,0,0,0,1.71,1.11,6.25,6.25,0,0,0,2.33.4h5.79a1.33,1.33,0,0,1,0,2.66H42.53l-3.62,4.08h12.9a6.25,6.25,0,0,0,2.33-.4,5.1,5.1,0,0,0,1.72-1.11,4.71,4.71,0,0,0,1.06-1.68A6.11,6.11,0,0,0,57.28,15a6,6,0,0,0-.36-2.12,4.85,4.85,0,0,0-1.06-1.69"/><path class="cls-1" d="M29.2,15.88A3.14,3.14,0,0,1,28,15.06a3.75,3.75,0,0,1-.82-1.41,6.2,6.2,0,0,1-.3-2.07,6.6,6.6,0,0,1,.29-2.06A4,4,0,0,1,28,8.1a3.14,3.14,0,0,1,1.21-.82A4.25,4.25,0,0,1,30.63,7h4.86l3.66-4.13H29.93A8.32,8.32,0,0,0,23.79,5.1c-1.46,1.46-2.19,3.64-2.19,6.48s.73,5,2.19,6.48a8.32,8.32,0,0,0,6.14,2.19h5.58l3.64-4.11v0H30.63a4.25,4.25,0,0,1-1.43-.24"/><rect class="cls-1" x="67.59" y="2.91" width="4.08" height="17.34"/><path class="cls-1" d="M99.54,2.91H95.25a6,6,0,1,0,0,11.92h4.29v.34a3.54,3.54,0,0,1-.13,1,1.31,1.31,0,0,1-.34.56,1,1,0,0,1-.49.24,3.73,3.73,0,0,1-.59,0H91.46l-2.83,3.19h8.63a18.45,18.45,0,0,0,3.45-.31,4.17,4.17,0,0,0,1.51-1,4.45,4.45,0,0,0,1-1.61,6.48,6.48,0,0,0,.38-2.32V2.91Zm0,8.13h-4a2.17,2.17,0,1,1,0-4.33h4Z"/><path class="cls-1" d="M138.63,9.88V6.68h-3.21V2.91h-4.08V6.68h-1.76l-2.82,3.2h4.58v6.3a5.75,5.75,0,0,0,.35,2.2,2.72,2.72,0,0,0,2.21,1.76,9.13,9.13,0,0,0,1.5.11h3.23V17.06h-1.3a3,3,0,0,1-1.07-.16,1.21,1.21,0,0,1-.58-.43,1.4,1.4,0,0,1-.22-.61c0-.23,0-.46,0-.71V9.88Z"/><path class="cls-1" d="M173.46,13.13a3.81,3.81,0,0,0-1.35-.88,4.89,4.89,0,0,0-1.82-.32h-4.54a1,1,0,1,1,0-2h6.77l2.83-3.2H165.26a4.92,4.92,0,0,0-1.82.32,3.91,3.91,0,0,0-1.34.86,3.49,3.49,0,0,0-.83,1.32,4.77,4.77,0,0,0-.28,1.65,4.67,4.67,0,0,0,.28,1.66,3.45,3.45,0,0,0,.83,1.31,4.09,4.09,0,0,0,1.34.87,4.93,4.93,0,0,0,1.82.31h4.53a1,1,0,1,1,0,2.07H163l-2.83,3.2h10.09a4.89,4.89,0,0,0,1.82-.31,3.93,3.93,0,0,0,1.35-.87,3.75,3.75,0,0,0,.83-1.32,4.69,4.69,0,0,0,.28-1.65,4.61,4.61,0,0,0-.28-1.65,3.75,3.75,0,0,0-.83-1.32"/><path class="cls-1" d="M125,13.13a3.68,3.68,0,0,0-1.34-.88,4.92,4.92,0,0,0-1.82-.32h-4.55a1,1,0,0,1,0-2H124l2.83-3.2H116.77A4.85,4.85,0,0,0,115,7a4.06,4.06,0,0,0-1.35.86,3.75,3.75,0,0,0-.83,1.32,4.77,4.77,0,0,0-.28,1.65,4.67,4.67,0,0,0,.28,1.66,3.71,3.71,0,0,0,.83,1.31,4.24,4.24,0,0,0,1.35.87,4.85,4.85,0,0,0,1.82.31h4.52a1,1,0,1,1,0,2.07h-6.75l-2.83,3.2H121.8a4.93,4.93,0,0,0,1.82-.31,3.79,3.79,0,0,0,1.34-.87,3.61,3.61,0,0,0,.83-1.32,4.69,4.69,0,0,0,.28-1.65,4.61,4.61,0,0,0-.28-1.65,3.61,3.61,0,0,0-.83-1.32"/><path class="cls-1" d="M152.6,16.83a2.36,2.36,0,0,1-.94-.64,3.06,3.06,0,0,1-.65-1.1,5.05,5.05,0,0,1-.23-1.62,5.12,5.12,0,0,1,.23-1.61,3.06,3.06,0,0,1,.65-1.12,2.44,2.44,0,0,1,.94-.63,3.21,3.21,0,0,1,1.12-.19h3.81l2.86-3.24h-7.22a6.53,6.53,0,0,0-4.8,1.72,6.9,6.9,0,0,0-1.72,5.07,6.91,6.91,0,0,0,1.72,5.07,6.52,6.52,0,0,0,4.8,1.71h4.37L160.39,17v0h-6.67a3.21,3.21,0,0,1-1.12-.19"/><rect class="cls-1" x="140.74" y="6.68" width="4.08" height="13.57"/><polygon class="cls-1" points="147.25 2.91 143.09 2.91 141.08 5.18 145.25 5.18 147.25 2.91"/><rect class="cls-1" x="106.1" y="6.68" width="4.08" height="13.57"/><polygon class="cls-1" points="112.62 2.91 108.45 2.91 106.44 5.18 110.61 5.18 112.62 2.91"/></svg>